/* XPM */
static char * close_xpm[] = {
"50 50 17 1",
" 	c #BC9862",
".	c #9F844D",
"+	c #1B1B1B",
"@	c #000000",
"#	c #3F254B",
"$	c #321E3C",
"%	c #281830",
"&	c #201326",
"*	c #695433",
"=	c #9B59B6",
"-	c #7C4792",
";	c #684E74",
">	c #633975",
",	c #735E39",
"'	c #72587E",
")	c #B4905A",
"!	c #4F2E5E",
"   ..++++++@++@++++++@++@++++++@++@++++++@++@  ...",
"   ..+@##+#$+@$+@##+#$+@$+@##+#$+@$+@##+#$+@$  ...",
"   ..+@$++$$++++@$++$$++++@$++$$++++@$++$$+++  ...",
"     ++@@@+++++++@@@+++++++@@@+++++++@@@+++++  ...",
"     ++$$$+@+@@++$$$+@+@@++$$$+@+@@++$$$+@+@@  ...",
"     +@$+%++@&++@$+%++@&++@$+%++@&++@$+%++@&+  ...",
"     +++++@+++++++++@+++++++++@+++++++++@++++  ...",
"     +@+++$++@&+@+++$++@&+@+++$++@&+@+++$++@&  ...",
"     ++&++&&+++++&++&&+++++&++&&+++++&++&&+++  ...",
"     ++&++&&&++++&++&&&++++&++&&&++++&++&&&++  ...",
"*****++++++@++@==-;=>-=>>==-;=>-=>>++++++@++@,,,,,",
"*****+@##+#$+@$==>-====>===>-====>=+@##+#$+@$,,,,,",
"*****+@$++$$+++=--=>--=>>=--=>--=>>+@$++$$+++,,,,,",
"   ..++@@@+++++===>'==>=====>'==>==++@@@+++++))   ",
"   ..++$$$+@+@@==>!-=-=>-==>!-=-=>-++$$$+@+@@))   ",
"   ..+@$+%++@&+>>>>=-=-==>>>>=-=-==+@$+%++@&+))   ",
".....+++++@++++!-=>>--=>-!-=>>--=>-+++++@++++.....",
".....+@+++$++@&>>==>-=--->>==>-=---+@+++$++@&.....",
".....++&++&&+++==>-==--=-==>-==--=-++&++&&+++.....",
"     ++&++&&&++>=->-->=>->=->-->=>-++&++&&&++     ",
"     ++++++@++@==-;=>-=>>==-;=>-=>>++++++@++@     ",
"     +@##+#$+@$==>-====>===>-====>=+@##+#$+@$     ",
",,,,,+@$++$$+++=--=>--=>>=--=>--=>>+@$++$$+++,,,,,",
",,,,,++@@@+++++===>'==>=====>'==>==++@@@+++++,,,,,",
",,,,,++$$$+@+@@==>!-=-=>-==>!-=-=>-++$$$+@+@@,,,,,",
"     +@$+%++@&+>>>>=-=-==>>>>=-=-==+@$+%++@&+  ...",
"     +++++@++++!-=>>--=>-!-=>>--=>-+++++@++++  ...",
"     +@+++$++@&>>==>-=--->>==>-=---+@+++$++@&  ...",
".....++&++&&+++==>-==--=-==>-==--=-++&++&&+++.....",
".....++&++&&&++>=->-->=>->=->-->=>-++&++&&&++.....",
".....++++++@++@==-;=>-=>>==-;=>-=>>++++++@++@.....",
"   ))+@##+#$+@$==>-====>===>-====>=+@##+#$+@$))...",
"   ))+@$++$$+++=--=>--=>>=--=>--=>>+@$++$$+++))...",
"   ))++@@@+++++===>'==>=====>'==>==++@@@+++++))...",
"   ))++$$$+@+@@==>!-=-=>-==>!-=-=>-++$$$+@+@@))...",
",,,**+@$+%++@&+>>>>=-=-==>>>>=-=-==+@$+%++@&+**,,,",
",,,**+++++@++++!-=>>--=>-!-=>>--=>-+++++@++++**,,,",
",,,**+@+++$++@&>>==>-=--->>==>-=---+@+++$++@&**,,,",
"     ++&++&&+++==>-==--=-==>-==--=-++&++&&+++     ",
"     ++&++&&&++>=->-->=>->=->-->=>-++&++&&&++     ",
"     ++++++@++@++++++@++@++++++@++@++++++@++@     ",
")))..+@##+#$+@$+@##+#$+@$+@##+#$+@$+@##+#$+@$..)))",
")))..+@$++$$++++@$++$$++++@$++$$++++@$++$$+++..)))",
")))..++@@@+++++++@@@+++++++@@@+++++++@@@+++++..)))",
"     ++$$$+@+@@++$$$+@+@@++$$$+@+@@++$$$+@+@@     ",
"     +@$+%++@&++@$+%++@&++@$+%++@&++@$+%++@&+     ",
"     +++++@+++++++++@+++++++++@+++++++++@++++     ",
",,,,,+@+++$++@&+@+++$++@&+@+++$++@&+@+++$++@&**,,,",
",,,,,++&++&&+++++&++&&+++++&++&&+++++&++&&+++**,,,",
",,,,,++&++&&&++++&++&&&++++&++&&&++++&++&&&++**,,,"};
