/* XPM */
static char * coin_xpm[] = {
"50 50 19 1",
" 	c #BC9862",
".	c #9F844D",
"+	c #B4905A",
"@	c #735E39",
"#	c #474747",
"$	c #B9B9B9",
"%	c #695433",
"&	c #9E9E9E",
"*	c #323232",
"=	c #717171",
"-	c #161616",
";	c #565656",
">	c #282828",
",	c #333333",
"'	c #070707",
")	c #7F7F7F",
"!	c #A8A8A8",
"~	c #7C623E",
"{	c #4C3D26",
"   .............      +++...                   ...",
"   .............      +++...                   ...",
"   .............      +++...                   ...",
"      +++@@@+++++++...............+++....+++   ...",
"      +++@@@+++++++...............+++....+++   ...",
"      +++@@@+++++++...............+++....+++   ...",
"      ........#######++++@@@      +++          ...",
"      ........#######++++@@@      +++          ...",
"      ........#######++++@@@      +++          ...",
"      .......#$$$$$$$#+++@@@      +++          ...",
"%%%%%%%%%@@@@#$$$$$$$#@@@@@@@@@%%%%%%%%%%%%%@@@@@@",
"%%%%%%%%%@@@@#$$$$$$$#@@@@@@@@@%%%%%%%%%%%%%@@@@@@",
"%%%%%%%%%@@@@#$$$$$$$#@@@@@@@@@%%%%%%%%%%%%%@@@@@@",
"   ......####$&&&****=***   ......@@@++++++++++   ",
"   ......####$***    ****   ......@@@++++++++++   ",
"   ......####$***    ****   ......@@@++++++++++   ",
"......@@@####$***++  ****++++++++++++.............",
"......@@@####&###++   ...++++++++++++.............",
"......@@@####&###++   ...++++++++++++.............",
"         ####&###     .........@@@                ",
"         ####&###     .........@@@                ",
"         ####&###     .........@@@                ",
"@@@@@@%%%####=###%%%%#***@@@@@@%%-%%%%%%%%%%@@@@@@",
"@@@@@@%%%####=###%%%%#***@@@@@@%%-%%%%%%%%%%@@@@@@",
"@@@@@@%%%####=###%%%%#***@@@@@@%%-%%%%%%%%%%@@@@@@",
"         ****=&&&####&***   +----;---          ...",
"             *===&&&&*    --->>>>,'''          ...",
"             *===&&&&*    --->>>>,'''          ...",
".............*===&&&&*+++.--->>>>,'''    .........",
"..............*******++++-,,,;;;;)>>>''''.........",
"..............*******++++-,,,;;;;)>>>''''.........",
"   +++++++++  *******....-,,,;;;;)>>>''''++++++...",
"   +++++++++  *******....-,,,;;;;)>>>''''++++++...",
"   +++++++++       ...--->,,,!!!!>---''''++++++...",
"   +++++++++       ...---;)))>>>>---->>>>'+++++...",
"@@@%%%@@@@@@%%%%%%%%%%---;)))>>>>---->>>>'%%%%%@@@",
"@@@%%%@@@@@@%%%%%%%%%%---;)))>>>>---->>>>'%%%%%@@@",
"@@@%%%@@@@@@%%%%%%%%%%---;,,,---->,,,;;;;'%%%%%@@@",
"                ...   ---;,,,---->,,,;;;;'        ",
"                ...   ---;,,,---->,,,;;;;'        ",
"                ...   ---;,,,---->,,,;;;;'        ",
"+++...@@@             ...'>>>----''''''''......+++",
"+++...@@@             ... '''''''+.............+++",
"+++...@@@             ... '''''''+.............+++",
"      ..........      ... '''''''.+++             ",
"      ..........      ...      ...+++             ",
"      ..........      ...      ...+++             ",
"@@@@@@@@@~~~%%%%%%%~~~%%%@@@@@@@@@%%%{{{{%%%%%%@@@",
"@@@@@@@@@~~~%%%%%%%~~~%%%@@@@@@@@@%%%{{{{%%%%%%@@@",
"@@@@@@@@@~~~%%%%%%%~~~%%%@@@@@@@@@%%%{{{{%%%%%%@@@"};
