/* XPM */
static char * Creeper2_xpm[] = {
"50 50 10 1",
" 	c #BC9862",
".	c #9F844D",
"+	c #B4905A",
"@	c #735E39",
"#	c #207D36",
"$	c #1AB540",
"%	c #695433",
"&	c #000200",
"*	c #7C623E",
"=	c #4C3D26",
"   .............      +++...                   ...",
"   .............      +++...                   ...",
"   .............      +++...                   ...",
"      +++@@@+++++++...............+++....+++   ...",
"      +++@######$$$$$$$$$$$$$$$$$$$$$$$$.+++   ...",
"      +++@######$$$$$$$$$$$$$$$$$$$$$$$$.+++   ...",
"      ....######$$$$$$$$$$$$$$$$$$$$$$$$       ...",
"      ....######$$$$$$$$$$$$$$$$$$$$$$$$       ...",
"      ....######$$$$$$$$$$$$$$$$$$$$$$$$       ...",
"      ....######$$$$$$$$$$$$$$$$$$$$$$$$       ...",
"%%%%%%%%%@######$$$&&&&&&$$$$$$&&&&&&$$$%%%%@@@@@@",
"%%%%%%%%%@######$$$&&&&&&$$$$$$&&&&&&$$$%%%%@@@@@@",
"%%%%%%%%%@######$$$&&&&&&$$$$$$&&&&&&$$$%%%%@@@@@@",
"   .......######$$$&&&&&&$$$$$$&&&&&&$$$+++++++   ",
"   .......######$$$&&&&&&$$$$$$&&&&&&$$$+++++++   ",
"   .......######$$$&&&&&&$$$$$$&&&&&&$$$+++++++   ",
"......@@@+######$$$$$$$$$&&&&&&$$$$$$$$$..........",
"......@@@+######$$$$$$$$$&&&&&&$$$$$$$$$..........",
"......@@@+######$$$$$$$$$&&&&&&$$$$$$$$$..........",
"         +######$$$$$$&&&&&&&&&&&&$$$$$$          ",
"         +######$$$$$$&&&&&&&&&&&&$$$$$$          ",
"         +######$$$$$$&&&&&&&&&&&&$$$$$$          ",
"@@@@@@%%%%######$$$$$$&&&$$$$$$&&&$$$$$$%%%%@@@@@@",
"@@@@@@%%%%######$$$$$$&&&$$$$$$&&&$$$$$$%%%%@@@@@@",
"@@@@@@%%%%######$$$$$$&&&$$$$$$&&&$$$$$$%%%%@@@@@@",
"          ######$$$$$$$$$$$$$$$$$$$$$$$$       ...",
"          ######$$$$$$$$$$$$$$$$$$$$$$$$       ...",
"          ######$$$$$$$$$$$$$$$$$$$$$$$$       ...",
".............########################    .........",
".............########################    .........",
".............########################    .........",
"   +++++++++ ######$$$$$$$$$$$$$$$$$$++++++++++...",
"   +++++++++ ######$$$$$$$$$$$$$$$$$$++++++++++...",
"   +++++++++ ######$$$$$$$$$$$$$$$$$$++++++++++...",
"   +++++++++ ######$$$$$$$$$$$$$$$$$$++++++++++...",
"@@@%%%@@@@@@%######$$$$$$$$$$$$$$$$$$%%%%%%%%%%@@@",
"@@@%%%@@@@@@%######$$$$$$$$$$$$$$$$$$%%%%%%%%%%@@@",
"@@@%%%@@@@@@%######$$$$$$$$$$$$$$$$$$%%%%%%%%%%@@@",
"             ######$$$$$$$$$$$$$$$$$$++++         ",
"             ######$$$$$$$$$######$$$$$$+         ",
"             ######$$$$$$$$$######$$$$$$+         ",
"+++...@@@    ######$$$$$$$$$######$$$$$$.......+++",
"+++...@@@ ###$$$######$$$$$$######$$$$$$.......+++",
"+++...@@@ ###$$$######$$$$$$######$$$$$$.......+++",
"      ....###$$$######$$$$$$######$$$$$$          ",
"      ....###$$$######$$$$$$######$$$$$$          ",
"      ....###$$$######$$$$$$######$$$$$$          ",
"@@@@@@@@@*###$$$######$$$$$$######$$$$$$=%%%%%%@@@",
"@@@@@@@@@*###$$$######$$$$$$@@@@@@%%%====%%%%%%@@@",
"@@@@@@@@@*###$$$######$$$$$$@@@@@@%%%====%%%%%%@@@"};
