/* XPM */
static char * floor_xpm[] = {
"50 50 7 1",
" 	c #BC9862",
".	c #9F844D",
"+	c #B4905A",
"@	c #735E39",
"#	c #695433",
"$	c #7C623E",
"%	c #4C3D26",
"   .............      +++...                   ...",
"   .............      +++...                   ...",
"   .............      +++...                   ...",
"      +++@@@+++++++...............+++....+++   ...",
"      +++@@@+++++++...............+++....+++   ...",
"      +++@@@+++++++...............+++....+++   ...",
"      .............++++++@@@      +++          ...",
"      .............++++++@@@      +++          ...",
"      .............++++++@@@      +++          ...",
"      .............++++++@@@      +++          ...",
"#########@@@@@@@@@@@@@@@@@@@@@@#############@@@@@@",
"#########@@@@@@@@@@@@@@@@@@@@@@#############@@@@@@",
"#########@@@@@@@@@@@@@@@@@@@@@@#############@@@@@@",
"   .............      ...   ......@@@++++++++++   ",
"   .............      ...   ......@@@++++++++++   ",
"   .............      ...   ......@@@++++++++++   ",
"......@@@++++++++++   ...++++++++++++.............",
"......@@@++++++++++   ...++++++++++++.............",
"......@@@++++++++++   ...++++++++++++.............",
"         +++          .........@@@                ",
"         +++          .........@@@                ",
"         +++          .........@@@                ",
"@@@@@@################@@@@@@@@@#############@@@@@@",
"@@@@@@################@@@@@@@@@#############@@@@@@",
"@@@@@@################@@@@@@@@@#############@@@@@@",
"                @@@...      +++++++++          ...",
"                @@@...      +++++++++          ...",
"                @@@...      +++++++++          ...",
"................   ++++++.........@@@    .........",
"................   ++++++.........@@@    .........",
"................   ++++++.........@@@    .........",
"   +++++++++       ............++++++++++++++++...",
"   +++++++++       ............++++++++++++++++...",
"   +++++++++       ............++++++++++++++++...",
"   +++++++++       ............++++++++++++++++...",
"@@@###@@@@@@##########@@@@@@@@@@@@@@@##########@@@",
"@@@###@@@@@@##########@@@@@@@@@@@@@@@##########@@@",
"@@@###@@@@@@##########@@@@@@@@@@@@@@@##########@@@",
"                ...   ......@@@......++++         ",
"                ...   ......@@@......++++         ",
"                ...   ......@@@......++++         ",
"+++...@@@             ...   ++++++.............+++",
"+++...@@@             ...   ++++++.............+++",
"+++...@@@             ...   ++++++.............+++",
"      ..........      ...      ...+++             ",
"      ..........      ...      ...+++             ",
"      ..........      ...      ...+++             ",
"@@@@@@@@@$$$#######$$$###@@@@@@@@@###%%%%######@@@",
"@@@@@@@@@$$$#######$$$###@@@@@@@@@###%%%%######@@@",
"@@@@@@@@@$$$#######$$$###@@@@@@@@@###%%%%######@@@"};
