/* XPM */
static char * open_xpm[] = {
"50 50 11 1",
" 	c #BC9862",
".	c #9F844D",
"+	c #1B1B1B",
"@	c #000000",
"#	c #3F254B",
"$	c #321E3C",
"%	c #281830",
"&	c #201326",
"*	c #695433",
"=	c #735E39",
"-	c #B4905A",
"   ..++++++@++@++++++@++@++++++@++@++++++@++@  ...",
"   ..+@##+#$+@$+@##+#$+@$+@##+#$+@$+@##+#$+@$  ...",
"   ..+@$++$$++++@$++$$++++@$++$$++++@$++$$+++  ...",
"     ++@@@+++++++@@@+++++++@@@+++++++@@@+++++  ...",
"     ++$$$+@+@@++$$$+@+@@++$$$+@+@@++$$$+@+@@  ...",
"     +@$+%++@&++@$+%++@&++@$+%++@&++@$+%++@&+  ...",
"     +++++@+++++++++@+++++++++@+++++++++@++++  ...",
"     +@+++$++@&+@+++$++@&+@+++$++@&+@+++$++@&  ...",
"     ++&++&&+++++&++&&+++++&++&&+++++&++&&+++  ...",
"     ++&++&&&++++&++&&&++++&++&&&++++&++&&&++  ...",
"*****++++++@++@================****++++++@++@=====",
"*****+@##+#$+@$================****+@##+#$+@$=====",
"*****+@$++$$+++================****+@$++$$+++=====",
"   ..++@@@+++++.      ...   ......=++@@@+++++--   ",
"   ..++$$$+@+@@.      ...   ......=++$$$+@+@@--   ",
"   ..+@$+%++@&+.      ...   ......=+@$+%++@&+--   ",
".....+++++@++++----   ...----------+++++@++++.....",
".....+@+++$++@&----   ...----------+@+++$++@&.....",
".....++&++&&+++----   ...----------++&++&&+++.....",
"     ++&++&&&++       .........=== ++&++&&&++     ",
"     ++++++@++@       .........=== ++++++@++@     ",
"     +@##+#$+@$       .........=== +@##+#$+@$     ",
"=====+@$++$$+++*******=========****+@$++$$+++=====",
"=====++@@@+++++*******=========****++@@@+++++=====",
"=====++$$$+@+@@*******=========****++$$$+@+@@=====",
"     +@$+%++@&+ ===...      -------+@$+%++@&+  ...",
"     +++++@++++ ===...      -------+++++@++++  ...",
"     +@+++$++@& ===...      -------+@+++$++@&  ...",
".....++&++&&+++.   ------.........=++&++&&+++.....",
".....++&++&&&++.   ------.........=++&++&&&++.....",
".....++++++@++@.   ------.........=++++++@++@.....",
"   --+@##+#$+@$    ............----+@##+#$+@$--...",
"   --+@$++$$+++    ............----+@$++$$+++--...",
"   --++@@@+++++    ............----++@@@+++++--...",
"   --++$$$+@+@@    ............----++$$$+@+@@--...",
"===**+@$+%++@&+*******=============+@$+%++@&+**===",
"===**+++++@++++*******=============+++++@++++**===",
"===**+@+++$++@&*******=============+@+++$++@&**===",
"     ++&++&&+++ ...   ......===....++&++&&+++     ",
"     ++&++&&&++ ...   ......===....++&++&&&++     ",
"     ++++++@++@++++++@++@++++++@++@++++++@++@     ",
"---..+@##+#$+@$+@##+#$+@$+@##+#$+@$+@##+#$+@$..---",
"---..+@$++$$++++@$++$$++++@$++$$++++@$++$$+++..---",
"---..++@@@+++++++@@@+++++++@@@+++++++@@@+++++..---",
"     ++$$$+@+@@++$$$+@+@@++$$$+@+@@++$$$+@+@@     ",
"     +@$+%++@&++@$+%++@&++@$+%++@&++@$+%++@&+     ",
"     +++++@+++++++++@+++++++++@+++++++++@++++     ",
"=====+@+++$++@&+@+++$++@&+@+++$++@&+@+++$++@&**===",
"=====++&++&&+++++&++&&+++++&++&&+++++&++&&+++**===",
"=====++&++&&&++++&++&&&++++&++&&&++++&++&&&++**==="};
