/* XPM */
static char * steve1_xpm[] = {
"50 50 21 1",
" 	c #BC9862",
".	c #9F844D",
"+	c #B4905A",
"@	c #735E39",
"#	c #4F2B1F",
"$	c #703E22",
"%	c #695433",
"&	c #E59A66",
"*	c #C57C4C",
"=	c #FFFDF2",
"-	c #5D52B7",
";	c #BB6537",
">	c #672D0D",
",	c #28867E",
"'	c #00ADA4",
")	c #3A2F7B",
"!	c #6556B8",
"~	c #9D9994",
"{	c #767170",
"]	c #7C623E",
"^	c #4C3D26",
"   .............      +++...                   ...",
"   .............      +++...                   ...",
"   .............      +++...                   ...",
"      +++@@@+++++++...............+++....+++   ...",
"      +++@@@+++++++...............+++....+++   ...",
"      +++@@@+++++++...............+++....+++   ...",
"      .............++++++@@@      +++          ...",
"      ...######$$$$$$$$$$$$$$$$$$$$$+          ...",
"      ...######$$$$$$$$$$$$$$$$$$$$$+          ...",
"      ...######$$$$$$$$$$$$$$$$$$$$$+          ...",
"%%%%%%%%%######$$$$$$$$$$$$$$$$$$$$$%%%%%%%%@@@@@@",
"%%%%%%%%%######$$$$$$$$$$$$$$$$$$$$$%%%%%%%%@@@@@@",
"%%%%%%%%%######$$$&&&&&&&&&&&&&&&$$$%%%%%%%%@@@@@@",
"   ......######$$$&&&&&&&&&&&&&&&$$$@++++++++++   ",
"   ......######$$$&&&&&&&&&&&&&&&$$$@++++++++++   ",
"   ......###***&&&&&&&&&&&&&&&&&&&&&@++++++++++   ",
"......@@@###***&&&&&&&&&&&&&&&&&&&&&+.............",
"......@@@###***&&&==---&&&&&---==&&&+.............",
"......@@@###***&&&==---&&&&&---==&&&+.............",
"         ###***&&&==---&&&&&---==&&&              ",
"         ###***&&&&&&&&;;;;;&&&&&&&&              ",
"         ###***&&&&&&&&;;;;;&&&&&&&&              ",
"@@@@@@%%%###***&&&&&&&&;;;;;&&&&&&&&%%%%%%%%@@@@@@",
"@@@@@@%%%******&&&&&>>>&&&&&>>>&&&&&%%%%%%%%@@@@@@",
"@@@@@@%%%******&&&&&>>>&&&&&>>>&&&&&%%%%%%%%@@@@@@",
"         ******&&&&&>>>>>>>>>>>&&&&&+ ***&&&&&&&..",
"         ******&&&&&>>>>>>>>>>>&&&&&+ ***&&&&&&&..",
"         ******&&&&&>>>>>>>>>>>&&&&&+ ***&&&&&&&..",
"......,,,'''''''''''''''''''''''',,,*****&&&&&&&..",
"......,,,'''''''''''''''''''''''',,,*****&&&&&&&..",
"...,,,,,,,,,,,,'''''''''''''''''',,,*****&&&&&&&..",
"   ,,,,,,,,,,,,'''''''''''''''''',,,*****&&&&&&&..",
"   ,,,,,,,,,,,,'''''''''''''''''',,,*****&&&&&&&..",
" **,,,,,,+++,,,''''''''''''''''''++++++++++++++...",
" **,,,,,,+++,,,''''''''''''''''''++++++++++++++...",
"@**,,,,,,@@@,,,''''''''''''''''''@@@@%%%%%%%%%%@@@",
"@**,,,,,,@@@,,,''''''''''''''''''@@@@%%%%%%%%%%@@@",
"@********@@@,,,''''''''''''''''''@@@@%%%%%%%%%%@@@",
" ********   ,,,''''''''''''''''''....++++         ",
" ********   ,,,''''''''''''''''''....++++         ",
"   ******   )))!!!!!!!!~~~~~!!!''....++++         ",
"+++******   )))!!!!!!!!~~~~~!!!''+.............+++",
"+++...@@@   )))!!!!!~~~~~)))!!!!!+.............+++",
"+++...@@@   )))!!!!!~~~~~)))!!!!!+.............+++",
"      ......)))!!!!!~~~~~)))!!!!!.+++             ",
"      .........))){{{{{))))))))...+++             ",
"      .........))){{{{{))))))))...+++             ",
"@@@@@@@@@]]]%%%%%%%]]]%{{~~~~~~@@@%%%^^^^%%%%%%@@@",
"@@@@@@@@@]]]%%%%%%%]]]%{{~~~~~~@@@%%%^^^^%%%%%%@@@",
"@@@@@@@@@]]]%%%%%%%]]]%{{~~~~~~@@@%%%^^^^%%%%%%@@@"};
