/* XPM */
static char * steve_xpm[] = {
"50 50 21 1",
" 	c #BC9862",
".	c #9F844D",
"+	c #B4905A",
"@	c #310A00",
"#	c #552002",
"$	c #735E39",
"%	c #D68954",
"&	c #695433",
"*	c #B36734",
"=	c #FAF9FA",
"-	c #4036B4",
";	c #A84C1B",
">	c #4B0D00",
",	c #067270",
"'	c #009F9D",
")	c #190F6D",
"!	c #493BB5",
"~	c #5C5A5F",
"{	c #87888A",
"]	c #7C623E",
"^	c #4C3D26",
"   .............      +++...                   ...",
"   .............      +++...                   ...",
"   .......@@@@@@@######################        ...",
"      +++$@@@@@@@######################..+++   ...",
"      +++$@@@@@@@######################..+++   ...",
"      +++$@@@@@@@######################..+++   ...",
"      ....@@@@@@@######################        ...",
"      ....@@@@@@@###%%%%%%%%%%%%%%%%###        ...",
"      ....@@@@@@@###%%%%%%%%%%%%%%%%###        ...",
"      ....@@@@@@@###%%%%%%%%%%%%%%%%###        ...",
"&&&&&&&&&$@@@@***%%%%%%%%%%%%%%%%%%%%%%&&&&&$$$$$$",
"&&&&&&&&&$@@@@***%%%%%%%%%%%%%%%%%%%%%%&&&&&$$$$$$",
"&&&&&&&&&$@@@@***%%%%%%%%%%%%%%%%%%%%%%&&&&&$$$$$$",
"   .......@@@@***%%%==---%%%%%%---==%%%++++++++   ",
"   .......@@@@***%%%==---%%%%%%---==%%%++++++++   ",
"   .......@@@@***%%%==---%%%%%%---==%%%++++++++   ",
"......$$$+@@@@***%%%%%%%%;;;;;;%%%%%%%%...........",
"......$$$+@@@@***%%%%%%%%;;;;;;%%%%%%%%...........",
"......$$$+@@@@***%%%%%%%%;;;;;;%%%%%%%%...........",
"         +*******%%%%%>>>%%%%%%>>>%%%%%           ",
"         +*******%%%%%>>>%%%%%%>>>%%%%%           ",
"         +*******%%%%%>>>>>>>>>>>>%%%%%           ",
"$$$$$$&&&&*******%%%%%>>>>>>>>>>>>%%%%%&&&&&$$$$$$",
"$$$$$$&&&&*******%%%%%>>>>>>>>>>>>%%%%%&&&&&$$$$$$",
"$$$$$$&,,,''''''''''''''''''''''''''''''''&&$$$$$$",
"       ,,,''''''''''''''''''''''''''''''''     ...",
"       ,,,''''''''''''''''''''''''''''''''     ...",
"       ,,,''''''''''''''''''''''''''''''''     ...",
".......,,,''''''''''''''''''''''''''''''''........",
".......,,,''''''''''''''''''''''''''''''''........",
".......***%%%%%%%'''''''''''''''''''%%%%%%........",
"   ++++***%%%%%%%'''''''''''''''''''%%%%%%+++++...",
"   ++++***%%%%%%%'''''''''''''''''''%%%%%%+++++...",
"   ++++***%%%%%%%'''''''''''''''''''%%%%%%+++++...",
"   ++++***%%%%%%%'''''''''''''''''''%%%%%%+++++...",
"$$$&&&$***%%%%%%%'''''''''''''''''''%%%%%%&&&&&$$$",
"$$$&&&$***%%%%%%%'''''''''''''''''''%%%%%%&&&&&$$$",
"$$$&&&$$$$$$&&)))!!!!!!!!!!!!!!!!!''$&&&&&&&&&&$$$",
"              )))!!!!!!!!!!!!!!!!!''.++++         ",
"              )))!!!!!!!!!!!!!!!!!''.++++         ",
"              )))!!!!!......)))!!!!!.++++         ",
"+++...$$$     )))!!!!!...   )))!!!!!...........+++",
"+++...$$$     )))!!!!!...   )))!!!!!...........+++",
"+++...$$$     )))!!!!!...   )))!!!!!...........+++",
"      ........)))!!!!!...   )))!!!!!+             ",
"      ........~~~{{{{{...   ~~~{{{{{+             ",
"      ........~~~{{{{{...   ~~~{{{{{+             ",
"$$$$$$$$$]]]&&~~~{{{{{&&&$$$~~~{{{{{&^^^^&&&&&&$$$",
"$$$$$$$$$]]]&&&&&&&]]]&&&$$$$$$$$$&&&^^^^&&&&&&$$$",
"$$$$$$$$$]]]&&&&&&&]]]&&&$$$$$$$$$&&&^^^^&&&&&&$$$"};
