/* XPM */
static char * wall_xpm[] = {
"50 50 158 2",
"  	c #000000",
". 	c #BC9963",
"+ 	c #B4915B",
"@ 	c #BA9761",
"# 	c #9F844D",
"$ 	c #9F854C",
"% 	c #755E35",
"& 	c #745E39",
"* 	c #725E3B",
"= 	c #B69A6B",
"- 	c #BE9B65",
"; 	c #BE975C",
"> 	c #2B2213",
", 	c #271D11",
"' 	c #271D14",
") 	c #251F0F",
"! 	c #758D11",
"~ 	c #758D15",
"{ 	c #728A10",
"] 	c #5E730E",
"^ 	c #5E730C",
"/ 	c #5E730A",
"( 	c #281E12",
"_ 	c #2A2016",
": 	c #C19862",
"< 	c #BC1616",
"[ 	c #911110",
"} 	c #94100E",
"| 	c #351E10",
"1 	c #292410",
"2 	c #315A8E",
"3 	c #325A8E",
"4 	c #335B8C",
"5 	c #294E7A",
"6 	c #294D7D",
"7 	c #2B497B",
"8 	c #5C7108",
"9 	c #362916",
"0 	c #362919",
"a 	c #7B8431",
"b 	c #758D13",
"c 	c #60720F",
"d 	c #647119",
"e 	c #3F2F18",
"f 	c #41311A",
"g 	c #41301C",
"h 	c #41321F",
"i 	c #695534",
"j 	c #695532",
"k 	c #B5B5B5",
"l 	c #898989",
"m 	c #8C8889",
"n 	c #1B8A6A",
"o 	c #118E6C",
"p 	c #128D6E",
"q 	c #60750C",
"r 	c #3F2514",
"s 	c #5B7508",
"t 	c #627210",
"u 	c #128E6C",
"v 	c #138C6B",
"w 	c #0D6B51",
"x 	c #126956",
"y 	c #8F1112",
"z 	c #268567",
"A 	c #2C4D7A",
"B 	c #2F4D73",
"C 	c #494949",
"D 	c #3F3F3F",
"E 	c #3F3D42",
"F 	c #92100E",
"G 	c #472B16",
"H 	c #402D1C",
"I 	c #808332",
"J 	c #5E7408",
"K 	c #5F7310",
"L 	c #B6B6B6",
"M 	c #888A89",
"N 	c #86878B",
"O 	c #9E854D",
"P 	c #A4834E",
"Q 	c #3C3E3D",
"R 	c #3D321C",
"S 	c #BB1716",
"T 	c #950F0E",
"U 	c #94100C",
"V 	c #987734",
"W 	c #106852",
"X 	c #3B301A",
"Y 	c #116A54",
"Z 	c #685433",
"` 	c #BB9862",
" .	c #B3905A",
"..	c #795E31",
"+.	c #A08649",
"@.	c #26200A",
"#.	c #305889",
"$.	c #284E7D",
"%.	c #274E79",
"&.	c #BD9863",
"*.	c #BC955A",
"=.	c #382818",
"-.	c #BB1715",
";.	c #B51716",
">.	c #8D1312",
",.	c #940D14",
"'.	c #352A14",
").	c #A79B09",
"!.	c #A79B07",
"~.	c #8A7F03",
"{.	c #897E08",
"].	c #8A7E04",
"^.	c #312500",
"/.	c #2A240C",
"(.	c #285073",
"_.	c #254B7C",
":.	c #352B12",
"<.	c #70613A",
"[.	c #873607",
"}.	c #783008",
"|.	c #642804",
"1.	c #632806",
"2.	c #602A06",
"3.	c #8E1212",
"4.	c #920C13",
"5.	c #362918",
"6.	c #362A14",
"7.	c #43301F",
"8.	c #5E7117",
"9.	c #868B84",
"0.	c #711F23",
"a.	c #911112",
"b.	c #24517A",
"c.	c #2F4D7F",
"d.	c #168D71",
"e.	c #BA9963",
"f.	c #BB9A64",
"g.	c #940F14",
"h.	c #91100B",
"i.	c #305C89",
"j.	c #2F5890",
"k.	c #3A2D1A",
"l.	c #148B6D",
"m.	c #B2915B",
"n.	c #B1905A",
"o.	c #305C8D",
"p.	c #2D5C88",
"q.	c #838108",
"r.	c #792300",
"s.	c #138A6C",
"t.	c #5F740B",
"u.	c #7C623F",
"v.	c #6A5635",
"w.	c #7E6441",
"x.	c #6C5631",
"y.	c #4C3D26",
"z.	c #4C3D28",
"A.	c #4D3B23",
"                                                                                                    ",
"  . . . . . . . . . + + + . . . . . . . . @ # # # # # # # # $ % & * = . . . . . . . . . . - # # #   ",
"  . . . . . . . . . + + + . . . . . . . . @ # # # # # # # # $ % & * = . . . . . . . . . . - # # #   ",
"  . . . . . . . . . + + + . . . . . . . . @ # # # # # # # # $ % & * = . . . . . . . . . . - # # #   ",
"  . . ; > > > , , , , , , , , , , ' ) ! ~ { ] ^ / > > > > > > , , , , , , , , , , , ( > > _ # # #   ",
"  . . ; > > > , , , , , , , , , , ' ) ! ~ { ] ^ / > > > > > > , , , , , , , , , , , ( > > _ # # #   ",
"  . . ; > > > , , , , , , , , , , ' ) ! ~ { ] ^ / > > > > > > , , , , , , , , , , , ( > > _ # # #   ",
"  . . : < < < [ [ } | > 1 2 3 4 5 6 7 ! ~ { ] ] 8 9 9 9 9 9 9 9 9 0 a ! b ] c d e e e f g h # # #   ",
"  . . : < < < [ [ } | > 1 2 3 4 5 6 7 ! ~ { ] ] 8 9 9 9 9 9 9 9 9 0 a ! b ] c d e e e f g h # # #   ",
"  . . : < < < [ [ } | > 1 2 3 4 5 6 7 ! ~ { ] ] 8 9 9 9 9 9 9 9 9 0 a ! b ] c d e e e f g h # # #   ",
"  i j j k k k l l m n o p 2 3 4 5 6 7 ! ~ { ] ^ q < < < [ [ } r 9 0 a ! b ] s t o u v w w x & & &   ",
"  i j j k k k l l m n o p 2 3 4 5 6 7 ! ~ { ] ^ q < < < [ [ } r 9 0 a ! b ] s t o u v w w x & & &   ",
"  i j j k k k l l m n o p 2 3 4 5 6 7 ! ~ { ] ^ q < < < [ [ } r 9 0 a ! b ] s t o u v w w x & & &   ",
"  . . : < < < [ [ y z o p 2 3 4 5 A B C C C D D E < < < [ [ F G e H I ! b ] J K k k L l M N . . .   ",
"  . . : < < < [ [ y z o p 2 3 4 5 A B C C C D D E < < < [ [ F G e H I ! b ] J K k k L l M N . . .   ",
"  . . : < < < [ [ y z o p 2 3 4 5 A B C C C D D E < < < [ [ F G e H I ! b ] J K k k L l M N . . .   ",
"  # O P < < < [ [ y z o p 2 3 4 5 A B C C C D D Q f f R < < S T [ U V ! b ] s t o u v w w W # # #   ",
"  # O P < < < [ [ y z o p 2 3 4 5 A B C C C D D Q f f R < < S T [ U V ! b ] s t o u v w w W # # #   ",
"  # O P < < < [ [ y z o p 2 3 4 5 A B C C C D D Q f f R < < S T [ U V ! b ] s t o u v w w W # # #   ",
"  . . : < < < [ [ y z o p 2 3 4 5 6 7 ! ~ { ] ] 8 e e X < < S T [ U V ! b ] s t o u v w w Y . . .   ",
"  . . : < < < [ [ y z o p 2 3 4 5 6 7 ! ~ { ] ] 8 e e X < < S T [ U V ! b ] s t o u v w w Y . . .   ",
"  . . : < < < [ [ y z o p 2 3 4 5 6 7 ! ~ { ] ] 8 e e X < < S T [ U V ! b ] s t o u v w w Y . . .   ",
"  & & & & & & i i i i i i i i i i i i i i Z & & & & & & & & & i i i i i i i i i i i Z & & & & & &   ",
"  & & & & & & i i i i i i i i i i i i i i Z & & & & & & & & & i i i i i i i i i i i Z & & & & & &   ",
"  & & & & & & i i i i i i i i i i i i i i Z & & & & & & & & & i i i i i i i i i i i Z & & & & & &   ",
"  . . - # # # # # # # # # # # # . . ` + + + + +  .# # # # # # # # $ ..& & . . . # # # # # # # # #   ",
"  . . - # # # # # # # # # # # # . . ` + + + + +  .# # # # # # # # $ ..& & . . . # # # # # # # # #   ",
"  . . - # # # # # # # # # # # # . . ` + + + + +  .# # # # # # # # $ ..& & . . . # # # # # # # # #   ",
"  # # +., , , , , , , , , , , , , , , , , ( > > > > > > > > > , , , , , @.2 3 #.5 $.%.> > _ # # #   ",
"  # # +., , , , , , , , , , , , , , , , , ( > > > > > > > > > , , , , , @.2 3 #.5 $.%.> > _ # # #   ",
"  # # +., , , , , , , , , , , , , , , , , ( > > > > > > > > > , , , , , @.2 3 #.5 $.%.> > _ # # #   ",
"  . &.*., , , 9 9 9 9 9 =.< -.;.[ >.,.e e e e e e 9 9 '.).).!.~.{.].^.> /.2 3 #.5 (._.9 9 :.# # #   ",
"  . &.*., , , 9 9 9 9 9 =.< -.;.[ >.,.e e e e e e 9 9 '.).).!.~.{.].^.> /.2 3 #.5 (._.9 9 :.# # #   ",
"  . &.*., , , 9 9 9 9 9 =.< -.;.[ >.,.e e e e e e 9 9 '.).).!.~.{.].^.> /.2 3 #.5 (._.9 9 :.# # #   ",
"  & & <.[.[.[.}.}.}.|.1.2.< -.;.[ 3.4.9 5.6.f f 7.] ] 8.k k k l l 9.0.[ a.2 3 #.5 b.c.o u d.& & &   ",
"  & & <.[.[.[.}.}.}.|.1.2.< -.;.[ 3.4.9 5.6.f f 7.] ] 8.k k k l l 9.0.[ a.2 3 #.5 b.c.o u d.& & &   ",
"  & & <.[.[.[.}.}.}.|.1.2.< -.;.[ 3.4.9 5.6.f f 7.] ] 8.k k k l l 9.0.[ a.2 3 #.5 b.c.o u d.& & &   ",
"  . e.f.[.[.[.}.}.}.|.1.2.< -.;.[ g.h.2 i.j.9 9 k.] ] 8.k k k l l 9.0.[ a.2 3 #.5 b.c.o o l.. . .   ",
"  . e.f.[.[.[.}.}.}.|.1.2.< -.;.[ g.h.2 i.j.9 9 k.] ] 8.k k k l l 9.0.[ a.2 3 #.5 b.c.o o l.. . .   ",
"  . e.f.[.[.[.}.}.}.|.1.2.< -.;.[ g.h.2 i.j.9 9 k.] ] 8.k k k l l 9.0.[ a.2 3 #.5 b.c.o o l.. . .   ",
"  + m.n.[.[.[.}.}.}.|.1.2.< -.;.[ g.h.2 o.p.] ] 8 9 9 '.).).!.~.{.q.r.[ a.2 3 #.5 b.c.o o s.+ + +   ",
"  + m.n.[.[.[.}.}.}.|.1.2.< -.;.[ g.h.2 o.p.] ] 8 9 9 '.).).!.~.{.q.r.[ a.2 3 #.5 b.c.o o s.+ + +   ",
"  + m.n.[.[.[.}.}.}.|.1.2.< -.;.[ g.h.2 o.p.] ] 8 9 9 '.).).!.~.{.q.r.[ a.2 3 #.5 b.c.o o s.+ + +   ",
"  . e.f.[.[.[.}.}.}.|.1.2.< -.;.[ g.h.2 o.p.] ] t.f f f ).).!.~.{.q.r.[ a.2 3 #.5 b.c.o o l.. . .   ",
"  . e.f.[.[.[.}.}.}.|.1.2.< -.;.[ g.h.2 o.p.] ] t.f f f ).).!.~.{.q.r.[ a.2 3 #.5 b.c.o o l.. . .   ",
"  . e.f.[.[.[.}.}.}.|.1.2.< -.;.[ g.h.2 o.p.] ] t.f f f ).).!.~.{.q.r.[ a.2 3 #.5 b.c.o o l.. . .   ",
"  & & & & & & & & & u.u.u.i i i i i v.u.u.w.i i v.& & & & & & & & & x.i i y.z.A.i i i i i v.& & &   ",
"  & & & & & & & & & u.u.u.i i i i i v.u.u.w.i i v.& & & & & & & & & x.i i y.z.A.i i i i i v.& & &   ",
"  & & & & & & & & & u.u.u.i i i i i v.u.u.w.i i v.& & & & & & & & & x.i i y.z.A.i i i i i v.& & &   ",
"                                                                                                    "};
